<?xml version="1.0" standalone="no"?>
<!DOCTYPE svg PUBLIC "-//W3C//DTD SVG 20010904//EN"
 "http://www.w3.org/TR/2001/REC-SVG-20010904/DTD/svg10.dtd">
<svg version="1.0" xmlns="http://www.w3.org/2000/svg"
 width="6045.000000pt" height="3524.000000pt" viewBox="0 0 6045.000000 3524.000000"
 preserveAspectRatio="xMidYMid meet">

<g transform="translate(0.000000,3524.000000) scale(0.100000,-0.100000)"
fill="#000000" stroke="none">
<path d="M15430 34064 c-626 -14 -1210 -40 -1735 -75 -5980 -398 -10531 -2298
-13501 -5634 -162 -183 -188 -214 -181 -221 2 -3 51 48 108 113 2642 3011
6522 4866 11560 5527 1543 203 2985 285 4769 273 819 -6 1024 -11 1700 -42
7616 -352 16968 -2729 26665 -6775 5582 -2330 11106 -5182 15406 -7956 116
-75 213 -133 216 -130 8 8 34 -10 -269 184 -5849 3748 -13317 7353 -20738
10009 -5517 1975 -10831 3369 -15655 4108 -2241 343 -4219 532 -6340 605 -284
10 -1739 20 -2005 14z"/>
<path d="M16485 33249 c-2006 -31 -3912 -235 -5634 -600 -2284 -484 -4306
-1253 -6056 -2303 -1773 -1063 -3280 -2424 -4493 -4058 -189 -255 -294 -406
-290 -418 2 -6 32 31 68 82 752 1087 1778 2190 2860 3074 1414 1156 3109 2100
4985 2779 3714 1344 8282 1744 13620 1194 5431 -559 11602 -2107 18165 -4557
6804 -2540 13834 -6014 19605 -9687 320 -204 824 -531 997 -647 116 -77 133
-86 126 -69 -8 23 -1035 685 -1818 1173 -4208 2623 -9135 5179 -14085 7308
-5607 2412 -11129 4241 -16225 5375 -3507 780 -6736 1221 -9795 1335 -273 10
-1376 31 -1505 28 -36 -1 -272 -5 -525 -9z"/>
<path d="M17245 32433 c-2774 -63 -5340 -480 -7595 -1232 -3193 -1066 -5801
-2804 -7833 -5219 -608 -723 -1197 -1557 -1691 -2395 -64 -108 -116 -205 -116
-214 0 -9 50 69 112 173 594 1009 1252 1919 1987 2749 445 502 1039 1091 1541
1526 3051 2643 7081 4158 12020 4519 1291 94 2826 111 4130 45 2450 -123 4753
-420 7400 -954 7517 -1517 16173 -4802 24650 -9354 2832 -1520 5541 -3136
8073 -4813 284 -189 517 -339 517 -334 0 6 -141 104 -312 218 -2844 1897
-5980 3749 -9298 5490 -1159 608 -2669 1363 -3865 1932 -8005 3811 -15807
6361 -22545 7369 -1891 283 -3615 440 -5400 491 -299 9 -1451 11 -1775 3z"/>
<path d="M18335 31623 c-5330 -121 -9718 -1546 -13105 -4256 -790 -633 -1568
-1376 -2244 -2147 -1092 -1243 -2041 -2663 -2850 -4265 -69 -137 -126 -256
-126 -265 0 -8 66 113 146 270 186 365 352 672 527 980 1762 3091 4102 5445
7022 7062 2706 1499 5916 2357 9580 2563 568 31 753 37 1520 42 1420 10 2523
-42 3977 -188 5208 -521 11116 -2107 17458 -4687 4377 -1780 8941 -4034 13335
-6585 2300 -1335 4768 -2889 6683 -4210 95 -65 176 -116 179 -113 8 8 39 -15
-302 218 -3961 2698 -8322 5252 -12745 7463 -10631 5315 -20554 8153 -28405
8123 -297 -1 -589 -3 -650 -5z"/>
<path d="M19395 30813 c-3120 -63 -6009 -625 -8515 -1655 -2875 -1182 -5311
-2977 -7335 -5403 -955 -1145 -1815 -2435 -2595 -3890 -310 -580 -940 -1901
-940 -1971 0 -10 56 105 123 256 337 753 746 1568 1123 2237 1202 2135 2650
3961 4312 5440 2280 2028 4975 3436 8094 4227 1547 393 3199 631 4968 716 854
41 1951 41 2880 0 5427 -240 11690 -1821 18525 -4675 6677 -2789 13802 -6761
20337 -11339 38 -26 68 -43 68 -37 0 17 -915 651 -1800 1248 -4579 3087 -9574
5957 -14320 8225 -8531 4078 -16305 6319 -22885 6598 -614 26 -1443 35 -2040
23z"/>
<path d="M20265 29999 c-6656 -185 -11982 -2667 -15921 -7419 -1544 -1863
-2891 -4105 -4000 -6659 -188 -431 -336 -791 -332 -808 2 -8 34 61 72 153
1267 3091 2890 5770 4780 7894 388 436 1078 1140 1460 1489 961 879 1880 1580
2936 2238 2836 1768 6183 2796 9905 3042 771 51 1268 65 2145 58 669 -5 847
-10 1370 -37 6741 -349 14721 -2894 23510 -7498 4555 -2386 9279 -5306 13863
-8570 403 -288 387 -277 387 -264 0 13 -1018 735 -1810 1283 -6986 4838
-14104 8760 -20570 11334 -6639 2643 -12621 3908 -17795 3764z"/>
<path d="M21420 29194 c-632 -22 -967 -39 -1365 -69 -4711 -362 -8773 -2001
-12165 -4908 -2970 -2545 -5424 -6051 -7365 -10522 -245 -565 -515 -1226 -515
-1259 1 -12 52 105 114 259 951 2351 2043 4464 3264 6315 2721 4126 6110 7004
10148 8621 2034 814 4274 1316 6614 1484 646 46 918 56 1690 62 843 7 1448 -9
2170 -57 5387 -359 11418 -2145 18145 -5376 421 -202 1665 -822 2109 -1051
4682 -2415 9578 -5452 14696 -9117 357 -255 1025 -739 1303 -944 93 -68 172
-121 175 -118 7 8 33 -13 -248 193 -4981 3643 -9869 6763 -14475 9240 -6690
3598 -12815 5869 -18300 6787 -1465 245 -2737 379 -4235 447 -224 10 -1561 20
-1760 13z"/>
<path d="M22410 28384 c-439 -17 -661 -27 -865 -40 -4144 -255 -7847 -1541
-11087 -3851 -3231 -2303 -6004 -5622 -8325 -9963 -672 -1255 -1336 -2666
-1923 -4085 -176 -425 -202 -493 -198 -506 2 -6 55 114 117 268 823 2014 1784
3978 2779 5673 1018 1736 2119 3294 3296 4665 661 770 1465 1599 2191 2260
1798 1637 3793 2931 5930 3847 3385 1452 7182 1987 11365 1602 6229 -572
13312 -3166 21295 -7797 4012 -2327 8261 -5175 12974 -8694 260 -195 476 -351
479 -348 8 7 51 -26 -543 417 -6129 4566 -11342 7925 -16425 10582 -702 368
-2048 1036 -2735 1359 -5034 2365 -9570 3797 -13825 4362 -854 114 -1696 187
-2685 236 -199 10 -1633 20 -1815 13z"/>
<path d="M23390 27574 c-429 -18 -618 -28 -865 -45 -3606 -243 -6905 -1308
-9910 -3199 -2545 -1602 -4886 -3816 -6995 -6615 -2014 -2673 -3811 -5863
-5426 -9629 -101 -235 -184 -438 -183 -450 0 -14 2 -16 6 -6 19 48 349 816
446 1035 1982 4493 4251 8170 6828 11065 395 444 632 694 1128 1191 444 444
694 683 1036 990 1813 1626 3747 2897 5825 3826 3226 1443 6809 2037 10670
1768 6803 -474 14549 -3556 23552 -9373 3221 -2081 6520 -4438 10692 -7639
131 -101 241 -181 244 -178 8 7 27 -8 -378 302 -3607 2762 -6333 4731 -9140
6602 -3940 2626 -7476 4659 -10925 6278 -5161 2424 -9921 3773 -14250 4038
-546 33 -689 37 -1470 39 -445 2 -844 2 -885 0z"/>
<path d="M24555 26770 c-3688 -113 -7036 -1068 -10165 -2898 -978 -572 -1940
-1236 -2875 -1986 -4195 -3362 -7877 -8473 -11037 -15316 -265 -574 -469
-1032 -466 -1048 2 -9 20 24 42 74 73 168 433 959 583 1279 683 1460 1445
2942 2181 4245 4235 7494 9289 12303 15137 14405 1851 665 3807 1066 5800
1190 906 56 1861 59 2765 10 4934 -271 10312 -2016 16310 -5293 3991 -2180
8213 -5000 13365 -8926 1093 -833 3242 -2502 4233 -3289 8 -6 12 -6 12 1 0 10
-129 113 -1110 882 -3334 2614 -5799 4460 -8195 6137 -4999 3498 -9431 6033
-13575 7765 -3886 1623 -7516 2532 -10920 2733 -625 37 -1532 52 -2085 35z"/>
<path d="M25490 25960 c-2484 -99 -4751 -575 -6992 -1471 -873 -349 -1857
-824 -2700 -1305 -2486 -1418 -4841 -3368 -7073 -5859 -3080 -3435 -5947
-7930 -8557 -13414 -87 -184 -157 -341 -156 -349 2 -8 61 109 132 260 598
1263 1345 2730 2004 3933 2847 5202 5921 9260 9267 12234 2703 2403 5586 4083
8640 5035 1735 540 3509 841 5400 916 323 13 1318 13 1640 0 2534 -100 5073
-587 7790 -1495 4731 -1579 9823 -4387 15750 -8684 2465 -1786 4605 -3450
8838 -6869 527 -426 961 -771 964 -768 8 7 151 -110 -947 777 -3418 2759
-5120 4098 -7110 5594 -5469 4109 -10118 6940 -14457 8806 -3155 1356 -6149
2194 -9003 2518 -493 56 -1049 101 -1630 132 -264 13 -1520 20 -1800 9z"/>
<path d="M26915 25163 c-3661 -73 -7150 -1109 -10465 -3108 -2772 -1670 -5439
-4023 -7995 -7055 -2458 -2914 -4829 -6476 -7092 -10655 -543 -1002 -1354
-2568 -1352 -2612 0 -10 41 63 90 162 517 1029 1178 2276 1762 3325 4552 8172
9480 13810 14817 16952 2959 1742 6055 2719 9290 2933 498 32 733 39 1365 39
633 0 883 -7 1390 -39 3109 -202 6325 -1057 9770 -2598 721 -322 1828 -863
2525 -1232 3970 -2107 8034 -4916 13325 -9210 1163 -944 1872 -1530 4350
-3595 1980 -1649 1745 -1455 1745 -1442 0 9 -3149 2637 -4245 3543 -3203 2646
-5572 4494 -7830 6110 -3475 2487 -6588 4343 -9570 5709 -4204 1925 -8158
2848 -11880 2773z"/>
<path d="M27755 24354 c-236 -9 -704 -37 -924 -55 -3065 -247 -6008 -1202
-8906 -2887 -1615 -940 -3237 -2130 -4810 -3531 -3467 -3089 -6822 -7274
-10093 -12591 -720 -1170 -1411 -2353 -2139 -3661 -255 -458 -258 -462 -244
-458 5 2 127 215 270 472 6641 11935 13657 19113 21165 21653 2516 851 5120
1186 7771 999 3854 -273 7861 -1618 12205 -4098 2883 -1645 5922 -3788 9500
-6696 1599 -1300 2941 -2437 5995 -5081 1536 -1330 1559 -1350 2230 -1925 720
-617 665 -570 665 -557 0 5 -120 112 -267 238 -458 390 -1378 1183 -2383 2054
-4043 3501 -5725 4911 -7790 6531 -5870 4605 -10753 7361 -15405 8694 -1772
508 -3379 781 -5200 886 -179 10 -1446 20 -1640 13z"/>
<path d="M28860 23549 c-4772 -165 -9383 -2121 -13954 -5918 -985 -818 -1871
-1634 -2916 -2687 -710 -715 -1210 -1248 -1867 -1986 -2487 -2798 -4930 -6106
-7390 -10008 -493 -781 -1097 -1769 -1089 -1778 8 -7 1 -19 131 198 341 564
838 1363 1260 2025 4106 6438 8228 11307 12395 14641 2985 2388 5979 3987
9036 4824 2196 601 4425 804 6694 610 3978 -342 8117 -1917 12582 -4788 2668
-1715 5424 -3844 8878 -6856 1129 -985 1953 -1721 4405 -3936 1557 -1407 2305
-2077 3030 -2714 187 -165 350 -308 363 -319 12 -11 22 -16 22 -10 0 6 -109
107 -242 225 -781 686 -1731 1537 -3353 3003 -2463 2226 -3482 3133 -4770
4246 -5257 4544 -9379 7357 -13380 9134 -3384 1503 -6676 2204 -9835 2094z"/>
<path d="M30140 22750 c-1714 -45 -3388 -326 -5090 -854 -5302 -1644 -10638
-5700 -16060 -12206 -1954 -2346 -3876 -4945 -5844 -7905 -442 -664 -413 -619
-398 -614 6 2 210 303 454 669 2739 4106 5388 7530 8048 10400 876 945 1996
2068 2865 2871 4504 4161 8973 6611 13440 7369 2087 354 4168 343 6285 -31
2982 -528 6058 -1795 9262 -3817 2581 -1629 5234 -3702 8478 -6626 1250 -1127
2286 -2092 4870 -4541 1653 -1565 2653 -2500 3510 -3280 157 -142 329 -300
384 -349 54 -50 97 -84 95 -75 -2 8 -179 174 -394 369 -960 874 -1828 1685
-3745 3500 -3758 3559 -5328 4990 -7255 6611 -4370 3677 -8134 6012 -11790
7314 -2391 852 -4798 1256 -7115 1195z"/>
<path d="M31115 21943 c-892 -34 -1686 -120 -2540 -274 -2789 -502 -5627
-1694 -8503 -3571 -4730 -3087 -9631 -8070 -14728 -14973 -551 -747 -1404
-1931 -1404 -1950 0 -19 43 39 326 435 2493 3500 5090 6714 7524 9310 835 891
1929 1986 2735 2740 2894 2704 5688 4717 8453 6088 2822 1400 5583 2122 8342
2181 3909 83 7769 -1143 11880 -3774 2367 -1515 4852 -3515 7800 -6279 1247
-1170 2180 -2083 5015 -4906 2003 -1995 3005 -2973 4020 -3926 384 -360 405
-379 405 -367 0 6 -131 134 -292 284 -1192 1117 -2010 1919 -5003 4899 -2796
2784 -4264 4188 -5915 5656 -3786 3367 -7084 5583 -10295 6919 -2213 920
-4363 1412 -6580 1505 -209 9 -1043 11 -1240 3z"/>
<path d="M32175 21139 c-3688 -140 -7490 -1536 -11450 -4203 -4774 -3216
-9790 -8279 -15168 -15311 -185 -242 -337 -444 -337 -448 0 -19 27 14 177 211
3304 4353 6614 8098 9737 11016 2610 2439 5148 4363 7616 5773 2631 1504 5199
2433 7700 2787 890 126 1618 173 2540 163 514 -6 649 -11 1055 -42 3552 -272
7065 -1712 10767 -4411 2065 -1506 4215 -3408 6818 -6030 1005 -1013 1776
-1813 3795 -3939 1418 -1493 1997 -2097 2755 -2875 819 -840 2244 -2250 2259
-2235 3 3 -114 121 -259 262 -387 375 -1296 1281 -1803 1798 -778 793 -1402
1442 -2872 2990 -2216 2334 -2810 2950 -3935 4078 -1110 1115 -1890 1868
-2745 2652 -2432 2229 -4628 3889 -6765 5113 -758 434 -1625 868 -2370 1187
-2320 994 -4616 1482 -6930 1473 -206 0 -469 -5 -585 -9z"/>
<path d="M33475 20343 c-4235 -122 -8677 -1958 -13470 -5568 -3652 -2750
-7490 -6515 -11591 -11370 -747 -885 -1842 -2220 -1830 -2232 3 -4 8 -4 9 -2
404 498 621 765 826 1014 2835 3444 5519 6348 8126 8791 4119 3860 7989 6508
11656 7974 1880 752 3708 1195 5504 1335 445 34 613 40 1205 40 614 0 774 -6
1260 -46 2853 -232 5642 -1265 8491 -3144 1642 -1083 3295 -2433 5144 -4200
364 -347 1329 -1310 1759 -1755 1239 -1281 2214 -2342 4601 -5010 1505 -1682
2292 -2549 3099 -3415 689 -737 1512 -1593 1523 -1581 3 3 -125 139 -284 303
-1125 1158 -2138 2260 -4423 4813 -1308 1461 -2045 2277 -2718 3009 -3202
3479 -5666 5746 -8081 7435 -3170 2217 -6246 3388 -9421 3586 -408 25 -982 35
-1385 23z"/>
<path d="M34510 19540 c-1856 -74 -3671 -457 -5619 -1186 -4396 -1646 -9209
-5054 -14461 -10239 -1932 -1907 -3821 -3936 -5861 -6295 -540 -625 -569 -659
-541 -648 5 1 150 167 323 368 1359 1583 2736 3108 4053 4490 1034 1085 2304
2353 3296 3291 3478 3288 6802 5806 9885 7486 4029 2197 7753 3058 11280 2607
2177 -278 4320 -1064 6425 -2357 2357 -1448 4695 -3498 7480 -6557 1102 -1211
1996 -2248 4245 -4925 1638 -1949 2466 -2916 3360 -3920 328 -369 449 -499
443 -478 -2 7 -55 70 -118 140 -905 1003 -1877 2132 -3575 4153 -1324 1575
-1761 2093 -2390 2825 -2448 2854 -4302 4771 -6135 6343 -3523 3022 -6893
4591 -10450 4867 -473 36 -1205 52 -1640 35z"/>
<path d="M35780 18744 c-1425 -46 -2800 -276 -4274 -715 -5505 -1641 -11799
-6169 -19042 -13699 -949 -987 -1787 -1887 -2852 -3065 -45 -49 -79 -92 -76
-95 7 -6 18 6 485 520 2258 2488 4539 4804 6659 6761 5209 4807 9901 7909
14120 9334 1295 437 2484 710 3695 849 879 101 1813 122 2655 60 3044 -223
5881 -1439 8760 -3753 1577 -1267 3204 -2894 5022 -5023 1050 -1229 1796
-2153 3883 -4808 1551 -1974 2121 -2688 2840 -3559 165 -201 303 -369 307
-375 4 -6 10 -7 13 -4 4 4 -128 170 -292 370 -758 921 -1299 1599 -2768 3468
-1775 2258 -2323 2945 -3159 3955 -2155 2603 -3969 4473 -5731 5906 -1845
1500 -3684 2552 -5550 3174 -1174 392 -2359 617 -3610 685 -198 11 -903 20
-1085 14z"/>
<path d="M36805 17939 c-5092 -185 -10938 -3201 -17899 -9233 -2294 -1988
-4864 -4462 -7387 -7111 -379 -397 -404 -425 -392 -425 5 0 176 174 379 387
1358 1426 2864 2937 4145 4158 5377 5130 10133 8599 14384 10492 3066 1366
5889 1917 8505 1663 2486 -242 4809 -1201 7100 -2930 1840 -1389 3691 -3298
5829 -6010 889 -1128 1557 -2020 3355 -4480 1018 -1393 1321 -1804 1892 -2565
579 -771 541 -721 548 -714 3 3 -89 131 -206 285 -498 657 -1094 1462 -2246
3038 -1610 2203 -2235 3041 -3016 4046 -1694 2179 -3176 3830 -4606 5131
-2267 2063 -4511 3338 -6891 3918 -1128 275 -2307 393 -3494 350z"/>
<path d="M37930 17140 c-2715 -111 -5617 -1029 -8880 -2808 -4005 -2183 -8546
-5701 -13615 -10547 -818 -781 -2663 -2601 -2650 -2613 3 -3 305 294 673 659
1472 1464 2714 2650 4032 3850 7330 6672 13445 10374 18572 11244 1358 230
2659 266 3898 109 2384 -302 4603 -1325 6740 -3108 1785 -1489 3495 -3444
5634 -6440 632 -884 1207 -1721 2681 -3901 628 -929 884 -1305 1245 -1830 364
-529 400 -580 413 -584 15 -5 16 -7 -258 389 -360 521 -732 1067 -1495 2195
-1101 1628 -1479 2181 -1958 2870 -1516 2177 -2765 3786 -3947 5085 -610 671
-1319 1372 -1925 1904 -2418 2123 -4911 3263 -7635 3491 -446 37 -1103 52
-1525 35z"/>
</g>
</svg>
